# xmcd
#
# Track frame offsets: 
#        150
#        16443
#        51338
#        80403
#        100517
#        116497
#        142526
#        181164
#        212350
#        230100
#        245230
#        271276
#        287289
#        304452
#        322313
#
# Disc length: 4510 seconds
#
# Revision: 4
# Processed by: cddbd v1.5.2PL0 Copyright (c) Steve Scherf et al.
# Submitted via: ExactAudioCopy v0.99pb5
#
DISCID=d0119c0f
DTITLE=Various Artist - Kontor Maximum Trance [CD2)
DYEAR=2005
DGENRE=Trance
TTITLE0=4 Strings - Desire
TTITLE1=Scooter - Hello! (Good To Be Back) (Club Mix)
TTITLE2=D.O.N.S. feat. Technotronic - Pump Up The Jam (Saint Remix)
TTITLE3=Alex M.O.R.P.H. - New Harvest
TTITLE4=Stellar Project feat. Brandi Emma - Get Up Stand Up (F&W Mix)
TTITLE5=Wave and Glider - Coffee
TTITLE6=Andy Moor - Halcyon (Alex M.O.R.P.H. Remix)
TTITLE7=Roy Gates - We Rock Together (E-Craig Remix)
TTITLE8=Ferrin and Low - Breeze
TTITLE9=Wippenberg - Earth
TTITLE10=Ernesto vs. Bastian - Dark Side Of The Moon (Axwell and Sebasti
TTITLE10=an Ingrosso Remode)
TTITLE11=Sikk - My Washing Machine
TTITLE12=Steve Murano - Hit The Ground
TTITLE13=DJ Mellow-D - Hacienda (Fluffy Dub Mix)
TTITLE14=Maxi Madrid - Un Dia (Ramon Zenker Edit)
EXTD=
EXTT0=
EXTT1=
EXTT2=
EXTT3=
EXTT4=
EXTT5=
EXTT6=
EXTT7=
EXTT8=
EXTT9=
EXTT10=
EXTT11=
EXTT12=
EXTT13=
EXTT14=
PLAYORDER=
